<svg width="26" height="24" viewBox="0 0 26 24" fill="none" xmlns="http://www.w3.org/2000/svg">
<mask id="mask0_16300_298839" style="mask-type:alpha" maskUnits="userSpaceOnUse" x="2" y="2" width="22" height="20">
<path d="M13.0017 21.9994L13.0004 21.9997L12.9991 21.9999C12.9181 21.9822 12.8324 21.9402 12.7385 21.87C10.5389 20.2269 6.55954 16.4878 6.55954 16.4878L4.28191 13.848L2.50037 10.2618L2.59865 6.40447L4.28191 3.55137L7.47408 2L10.3275 2.36165C10.3275 2.36165 12.2193 3.71635 12.9056 4.85406C12.9194 4.87959 13.0046 4.99986 13.0046 4.99986C13.0046 4.99986 13.0558 4.92717 13.0951 4.85406C13.7814 3.71635 15.6732 2.36165 15.6732 2.36165L18.4958 2L21.7188 3.55137L23.4021 6.40447L23.5004 10.2618L21.7188 13.9421L19.4412 16.4878C19.4412 16.4878 15.4618 20.2269 13.2622 21.87C13.1683 21.9402 13.0826 21.9816 13.0017 21.9994Z" fill="#B1B1B9"/>
</mask>
<g mask="url(#mask0_16300_298839)">
<path d="M12.7374 21.8696C9.43187 19.4003 6.30691 16.7318 3.96509 13.2336C2.89335 11.6359 2.0924 9.9268 2.1369 7.90051C2.19919 5.09699 3.98162 2.64473 6.53448 1.92256C8.98308 1.23053 11.4202 2.32624 12.9052 4.78767C12.9446 4.86107 12.9954 4.93054 12.9967 4.93316L13.0953 4.78767C14.5803 2.32624 17.0174 1.23053 19.466 1.92256C22.0189 2.64473 23.8013 5.09699 23.8636 7.90051C23.9081 9.9268 23.1072 11.6359 22.0354 13.2336C19.6936 16.7318 16.5687 19.4003 13.2632 21.8696C13.1696 21.9394 13.0843 21.9809 13.0036 21.999L13.0016 22H12.9989L12.9969 21.999C12.9163 21.9809 12.8309 21.9394 12.7374 21.8696Z" fill="#FFBBC9"/>
<mask id="mask1_16300_298839" style="mask-type:alpha" maskUnits="userSpaceOnUse" x="2" y="1" width="22" height="21">
<path d="M12.7374 21.8696C9.43187 19.4003 6.30691 16.7318 3.96509 13.2336C2.89335 11.6359 2.0924 9.9268 2.1369 7.90051C2.19919 5.09699 3.98162 2.64473 6.53448 1.92256C8.98308 1.23053 11.4202 2.32624 12.9052 4.78767C12.9375 4.84795 12.9776 4.90557 12.9916 4.9257C12.9947 4.93008 12.9965 4.93269 12.9967 4.93316L13.0003 17.3833L13.0038 4.93316C13.004 4.93269 13.0058 4.93008 13.0089 4.9257C13.0229 4.90557 13.063 4.84795 13.0953 4.78767C14.5803 2.32624 17.0174 1.23053 19.466 1.92256C22.0189 2.64473 23.8013 5.09699 23.8636 7.90051C23.9081 9.9268 23.1072 11.6359 22.0354 13.2336C19.6936 16.7318 16.5687 19.4003 13.2632 21.8696C13.1688 21.94 13.0828 21.9816 13.0016 21.9994V22C13.0011 21.9999 13.0007 21.9998 13.0003 21.9997C12.9998 21.9998 12.9994 21.9999 12.9989 22V21.9994C12.9177 21.9816 12.8317 21.94 12.7374 21.8696Z" fill="#3F0000"/>
</mask>
<g mask="url(#mask1_16300_298839)">
<path d="M7.98824 14.6802L6.29773 9.39023L11.132 6.24069L13.0005 7.52497V17.7992L7.98824 14.6802Z" fill="url(#paint0_linear_16300_298839)"/>
<path fill-rule="evenodd" clip-rule="evenodd" d="M5.5005 12.7922L3.19033 14.6302L1.53552 9.34488L5.5005 12.7922ZM5.5155 12.8017L6.51175 16.5166L11.7675 19.3833L8.04874 14.7184L5.5155 12.8017Z" fill="#D10432"/>
<path fill-rule="evenodd" clip-rule="evenodd" d="M4.8929 6.79205L4.88777 6.79899L4.89287 6.79238L6.311 9.39276L6.30743 9.40798L8.04882 14.7188L5.49451 12.7901L5.49506 12.7877L2.43537 10.1202L2.36056 10.2215L0.393433 8.03528L2.33848 6.10837L4.8929 6.79205Z" fill="#FF6560"/>
<path d="M11.1381 6.22797L7.10828 6.19412L7.54655 5.94034H10.7463L11.1381 6.22797Z" fill="url(#paint1_linear_16300_298839)"/>
<path fill-rule="evenodd" clip-rule="evenodd" d="M13.0018 4.92519V7.52045L11.1381 6.24489L10.0218 2.61409L8.28295 4.75103L7.349 1.12562L9.68851 1.52984L8.6864 -1.72983L13.0018 4.92519ZM6.7 4.13853L8.28248 4.75081L7.29378 0.916901L3.9364 3.06926L4.15981 3.1557L1.01648 5.75498L4.89083 6.79207L4.89232 6.79971L7.11445 6.19406L4.4885 3.47722L7.11353 6.1878L8.28242 4.75243L6.7 4.13853Z" fill="#FFC5C5"/>
<path fill-rule="evenodd" clip-rule="evenodd" d="M7.11316 6.18667L10.2925 2.28317L11.131 6.22437L11.1281 6.22435L6.32683 9.35174L6.31668 9.39254L6.30288 9.36734L6.29578 9.37197L6.29885 9.35999L4.89246 6.79211L7.1141 6.18716L7.10637 6.21822L7.11448 6.18668L7.11316 6.18667Z" fill="#FF92AC"/>
<path fill-rule="evenodd" clip-rule="evenodd" d="M8.04822 14.7174L11.766 19.3821L11.7662 19.3819L12.9979 22.1089V17.789L13.0004 17.7857L8.04822 14.7174Z" fill="#FF0651"/>
<path d="M19.49 16.5233L20.4862 12.8083L17.9981 14.6888L14.2342 19.39L19.49 16.5233Z" fill="url(#paint2_linear_16300_298839)"/>
<path fill-rule="evenodd" clip-rule="evenodd" d="M21.3067 7.04805L21.1088 6.79834L23.6632 6.11465L25.6083 8.04157L23.6559 10.0083L23.6854 10.0454L24.4486 9.38541L22.8114 14.6367L20.5013 12.7988L20.4896 12.8088L19.6776 9.37504L21.1088 6.79868L21.3067 7.04805Z" fill="#B80F0F"/>
<path d="M21.109 6.79856L21.8188 3.14255L24.9852 5.76096L21.109 6.79856Z" fill="#D72F2F"/>
<path d="M15.7092 2.28943L18.8885 6.19292L14.8707 6.23063L15.7092 2.28943Z" fill="#FF7D7D"/>
<path fill-rule="evenodd" clip-rule="evenodd" d="M14.8602 6.23782L14.8851 6.25523L15.7793 1.99353L13.0403 3.95997L13.0033 4.92749L12.9999 4.92512V7.52664L14.8602 6.23782Z" fill="#E84A4A"/>
<path fill-rule="evenodd" clip-rule="evenodd" d="M18.6522 1.13204L17.8517 4.23949L18.707 0.923065L22.0643 3.07542L21.8173 3.171L21.1846 6.79732L18.8877 6.19401L17.7188 4.75864L19.5251 4.0579L17.7184 4.75692L17.7183 4.75746L15.2469 1.72041L18.6522 1.13204Z" fill="#E01760"/>
<path fill-rule="evenodd" clip-rule="evenodd" d="M18.8878 6.19365L18.8876 6.19284L14.8716 6.22908L19.6752 9.35798L19.6895 9.41573L21.1092 6.79853L18.8878 6.19365Z" fill="#FB5D5D"/>
<path fill-rule="evenodd" clip-rule="evenodd" d="M22.0043 14.4074L19.6816 9.36594L17.9797 14.6903L13.004 17.7866L13.0038 17.7864V17.7867L13.0038 17.7868L13.0038 17.7868V22.1139L14.2356 19.3883L14.2358 19.3886L17.9839 14.7074L22.0043 14.4074Z" fill="#DA1711"/>
<g style="mix-blend-mode:multiply" opacity="0.2">
<path d="M13.0067 23.8109V4.98047L12.7902 3.08254L18.7819 -3.42996L26.9393 3.82683L22.1387 19.4568L13.0067 23.8109Z" fill="#9E0000"/>
</g>
<g style="mix-blend-mode:multiply" opacity="0.4">
<path d="M7.83127 11.7945L1.94421 8.66098V26.9521L20.1488 28.4462L24.3379 8.66098L17.8845 11.7945L12.9938 16.0385L7.83127 11.7945Z" fill="#8D0008"/>
</g>
</g>
</g>
<path d="M13.0046 4.98C13.7228 5.67584 13.7229 5.67574 13.723 5.67563L13.7233 5.67541L13.7237 5.67497L13.7246 5.67406L13.7264 5.67217L13.7303 5.66808L13.7392 5.65861C13.7456 5.65175 13.7529 5.64371 13.761 5.63456C13.7771 5.61642 13.797 5.59316 13.819 5.56542C13.8568 5.51773 13.9089 5.44658 13.9597 5.3568C14.2172 4.93757 14.7479 4.40907 15.2939 3.93914C15.5562 3.71338 15.7994 3.52015 15.9769 3.3835C16.0064 3.36078 16.034 3.33968 16.0595 3.32032L18.329 3.02954L21.0117 4.32082L22.409 6.68922L22.4945 10.0446L20.8799 13.38L18.7252 15.7883L18.7126 15.8002L18.584 15.9203C18.4719 16.0248 18.3091 16.1761 18.1067 16.3631C17.7017 16.737 17.139 17.2525 16.5084 17.8187C15.367 18.8436 14.0288 20.0112 13.0004 20.8119C11.9719 20.0112 10.6337 18.8436 9.49229 17.8187C8.86168 17.2525 8.29905 16.737 7.89408 16.3631C7.69166 16.1761 7.5288 16.0248 7.41673 15.9203L7.28817 15.8002L7.28208 15.7945L5.12141 13.2902L3.50636 10.0392L3.59172 6.68922L4.99006 4.31905L7.64355 3.02948L9.94177 3.32075C9.96712 3.34 9.99455 3.36095 10.0239 3.3835C10.2014 3.52015 10.4446 3.71338 10.7069 3.93914C11.2589 4.41425 11.7952 4.94922 12.0494 5.37062L12.0494 5.37061C12.0883 5.43524 12.1268 5.48457 12.1315 5.49057L12.1319 5.49114C12.151 5.51615 12.1704 5.54027 12.1848 5.55794C12.2 5.57662 12.2141 5.59359 12.2241 5.60559L12.2367 5.62051L12.2405 5.62505L12.2417 5.6265L12.2421 5.627L12.2423 5.62719L12.2424 5.62728L12.2424 5.62732L13.0046 4.98ZM13.0046 4.98L12.2424 5.62735L12.9559 6.46739L13.7228 5.67584L13.0046 4.98Z" stroke="#870000" stroke-opacity="0.72" stroke-width="2"/>
<defs>
<linearGradient id="paint0_linear_16300_298839" x1="8.88148" y1="5.87831" x2="14.6457" y2="11.6821" gradientUnits="userSpaceOnUse">
<stop stop-color="#FFE4E6"/>
<stop offset="1" stop-color="#FF6593"/>
</linearGradient>
<linearGradient id="paint1_linear_16300_298839" x1="9.1232" y1="5.83904" x2="9.1232" y2="6.22797" gradientUnits="userSpaceOnUse">
<stop stop-color="white" stop-opacity="0"/>
<stop offset="1" stop-color="white"/>
</linearGradient>
<linearGradient id="paint2_linear_16300_298839" x1="19.3607" y1="16.845" x2="16.7396" y2="15.4189" gradientUnits="userSpaceOnUse">
<stop offset="0.201603" stop-color="#DA151A"/>
<stop offset="1" stop-color="#B10F40"/>
</linearGradient>
</defs>
</svg>
