<svg xmlns="http://www.w3.org/2000/svg" fill="none" viewBox="0 0 24 24"><path d="m19 3 3 5-10 13L2 8l3-5Z" fill="url(#a)"/><path d="M12 21 8 8H2Z" fill="#fd7d0a"/><path opacity=".6" d="m12 21 4-13h6z" fill="#ffe22d"/><path opacity=".6" d="M8 8 5 3 2 8Z" fill="#f49509"/><path opacity=".8" d="M21.9999 8 19 3l-3 5Z" fill="#f9be02"/><path opacity=".8" d="m8 8 4.0001 13 4-13z" fill="#fb9501"/><path opacity=".4" d="M8.0002 8 5 3h7z" fill="#ff9006"/><path d="m12 3 4 5 3-5z" fill="#f3960d"/><path d="m12 3 4 5H8Z" fill="url(#b)"/><path opacity=".2" d="M12 21 8 8H2Z" fill="url(#c)"/><path opacity=".1" d="m12 21 4-13h6z" fill="url(#d)"/><path opacity=".2" d="M21.9999 8 19 3l-3 5Z" fill="url(#e)"/><path opacity=".25" d="m8 8 4.0001 13 4-13z" fill="url(#f)"/><path opacity=".4" d="M7.9999 8 5 3h6.9997z" fill="url(#g)"/><path opacity=".3" d="m12 3 4 5 3-5z" fill="url(#h)"/><g filter="url(#i)"><path fill-rule="evenodd" clip-rule="evenodd" d="M17 10c.5523 0 1 .4477 1 1v2h2c.5523 0 1 .4477 1 1s-.4477 1-1 1h-2v2c0 .5523-.4477 1-1 1s-1-.4477-1-1v-2h-2c-.5523 0-1-.4477-1-1s.4477-1 1-1h2v-2c0-.5523.4477-1 1-1z" fill="#fff"/></g><defs><linearGradient id="a" x1="2" y1="11.9998" x2="22" y2="11.9998" gradientUnits="userSpaceOnUse"><stop stop-color="#DA499B"/><stop offset=".446" stop-color="#FF7663"/><stop offset="1" stop-color="#FFB35C"/></linearGradient><linearGradient id="b" x1="10" y1="4" x2="15.5" y2="8" gradientUnits="userSpaceOnUse"><stop stop-color="#FB9501"/><stop offset="1" stop-color="#FFE144"/></linearGradient><linearGradient id="c" x1="7" y1="8" x2="8" y2="18.5" gradientUnits="userSpaceOnUse"><stop stop-color="#FFEC00"/><stop offset="1" stop-color="#864809"/></linearGradient><linearGradient id="d" x1="14" y1="16.5" x2="19.3627" y2="9.4087" gradientUnits="userSpaceOnUse"><stop stop-color="#fff" stop-opacity=".01"/><stop offset="1" stop-color="#fff"/></linearGradient><linearGradient id="e" x1="18" y1="7.5" x2="20.4633" y2="4.947" gradientUnits="userSpaceOnUse"><stop offset=".0928" stop-color="#fff" stop-opacity=".01"/><stop offset="1" stop-color="#fff"/></linearGradient><linearGradient id="f" x1="13.5" y1="14.5" x2="8.8994" y2="14.2987" gradientUnits="userSpaceOnUse"><stop stop-color="#FFEF29" stop-opacity=".16"/><stop offset="1" stop-color="#FFEF29"/></linearGradient><linearGradient id="g" x1="6" y1="3.5" x2="8.5" y2="7" gradientUnits="userSpaceOnUse"><stop stop-color="#FFD71B"/><stop offset="1" stop-color="#FF9006"/></linearGradient><linearGradient id="h" x1="19.5" y1="3.5" x2="14.3137" y2="2.63" gradientUnits="userSpaceOnUse"><stop stop-color="#FFDC3A"/><stop offset="1" stop-color="#FFF2B7"/></linearGradient><filter id="i" x="12.5" y="9.5" width="10" height="10" filterUnits="userSpaceOnUse" color-interpolation-filters="sRGB"><feFlood flood-opacity="0" result="BackgroundImageFix"/><feColorMatrix in="SourceAlpha" values="0 0 0 0 0 0 0 0 0 0 0 0 0 0 0 0 0 0 127 0" result="hardAlpha"/><feOffset dx=".5" dy=".5"/><feGaussianBlur stdDeviation=".5"/><feComposite in2="hardAlpha" operator="out"/><feColorMatrix values="0 0 0 0 0 0 0 0 0 0 0 0 0 0 0 0 0 0 0.45 0"/><feBlend in2="BackgroundImageFix" result="effect1_dropShadow_2993_449596"/><feBlend in="SourceGraphic" in2="effect1_dropShadow_2993_449596" result="shape"/></filter></defs></svg>